<svg xmlns="http://www.w3.org/2000/svg" viewBox="0 0 1085.42 1212.37"><defs><style>.cls-1{fill:#661219;opacity:0.6;}</style></defs><title>資產 38</title><g id="圖層_2" data-name="圖層 2"><g id="圖層_1-2" data-name="圖層 1"><path class="cls-1" d="M1023.07,556.43a431.84,431.84,0,0,0-369.92-208.6c-12.41,0-24.73.54-36.88,1.61q-13,2.3-25.73,5.47C477.61,382.93,383.1,457.6,328.6,557.25c-1,1.78-2,3.56-2.91,5.38a25.24,25.24,0,0,0-1.8,9.3A24.87,24.87,0,0,0,326.47,583a23.74,23.74,0,0,0,4.62,6.65c1.05.85,2.05,1.78,3,2.67a268.8,268.8,0,0,1,88.61,199.85c0,64.53-39.14,127.08-77.67,173.65-.93,1-1.75,2.09-2.67,3.14-.49.51-.93,1.11-1.42,1.64a25.57,25.57,0,0,0-1.38,29.25c.72,1,1.4,2,2.14,2.94q11.4,15.41,24.11,29.65s75.44,94.65,21.71,72.13c-24.11-10.11-48.25-29.65-83.79-62.1C263.45,1005.71,228.91,964,196.22,866.3,175.75,805.17,150,659.12,240.66,496.13A1026.82,1026.82,0,0,1,342.57,357.25c59.61-68.4,125.61-124.81,189.13-159.18a361.46,361.46,0,0,1,46.94-21.39c115.57-42.56,125.22-44.18,210.28-47.36,69.82-3.23,97-14.59,103.85-21.86a25.58,25.58,0,0,0,7-34s-.11-.09-.11-.09c-2-2.38-4.14-4.76-6.29-7a209.41,209.41,0,0,0-258.14-38c-9.94,6.85-19.79,13.77-29.51,20.88A1313.39,1313.39,0,0,0,212.2,507c-4,7.76-7.94,15.5-11.78,23.37,3.67-59.25,36.63-105.18,54.07-143.13s28.85-63.44,26.78-130C270.84,138.42,154.62,66.33,154.62,66.33s25.13,71.89,5.85,126.07S119.08,277.24,106.37,320s-14.12,88.6,14.77,139.76,68.8,77.49,55.17,129.76c0,0-.07.13-.07.18A476.94,476.94,0,0,0,160,817.9l-.11-.25C69.14,684.42,5.3,650.34,5.3,650.34s-15.39,41.71,6.27,156.55,89.09,161.93,113.93,183c33.84,19.91,61.86,40.57,84.28,32,17.91-10.14,8.94-21.35,25.52-18.26,83.7,122.69,223.4,204,382.31,207.26,11.67,1,23.57,1.44,35.54,1.44,176,0,327.41-105.16,394.86-256.15a432.76,432.76,0,0,0-24.94-399.79ZM671.34,1144.89a388,388,0,0,1-123.71-20.2c-.09-.06-.2-.06-.31-.13a388,388,0,0,1-103.21-53.45c-41.93-51,2.51-118,18.93-174.43,11.23-31.83,20.93-92,20.06-142-2.33-31.85,12-110-84.3-206.28,0,0,98.34-226.57,310-64.95,19.93,18.79,27,39.68,27,51.69,0,14-7,27.34-11.41,32.21l-6.94,7.85c-4.54,4.71-49.27,52.16-176.54,88.77-28.07,8-16.42,49.38,15.68,37.75,31.83-11.59,181.35-67.42,281.77,2.24.94.56,1.8,1.23,2.71,1.83A146.66,146.66,0,0,1,870.64,917.3l0,0c-2.63,4.47-113.11,191.05-387.9,70.87-17.7-6.85-12.9,10.47-6.07,18s209.53,139,411.81-24.33c61.43-62.35,119.6-186-18-303-44.6-38.66-132.86-57.9-146.93-55.5,19.28-12.86,90.7-69.07,50.6-138.53-22.2-38.28-60.35-61.46-96.74-76.22-6.61-2.12-13-4.52-19.26-7.19-22.33-7.67-42.73-12.41-56.61-16.08,3.16-.67,9.43-2.74,18.46-5.27a375.39,375.39,0,0,1,37.11-8.45c4.71-.18,9.49-.3,14.27-.3,190.54,0,348.93,137.76,380.92,319.12a390.83,390.83,0,0,1,5.91,67.65C1058.17,971.75,885,1144.89,671.34,1144.89Z"/></g></g></svg>