<svg xmlns="http://www.w3.org/2000/svg" viewBox="0 0 95.26 106.4"><defs><style>.cls-1{fill:#fff;}</style></defs><title>資產 48</title><g id="圖層_2" data-name="圖層 2"><g id="圖層_1-2" data-name="圖層 1"><path class="cls-1" d="M89.79,48.84A37.87,37.87,0,0,0,57.32,30.53c-1.08,0-2.17,0-3.23.14-.76.13-1.52.29-2.26.48a36.19,36.19,0,0,0-23,17.76c-.09.15-.18.31-.26.47a2.25,2.25,0,0,0-.15.82,2.3,2.3,0,0,0,.22,1,2.11,2.11,0,0,0,.41.58l.26.24A23.55,23.55,0,0,1,37.1,69.53c0,5.66-3.43,11.15-6.82,15.24l-.23.27-.12.15a2.19,2.19,0,0,0-.47,1.37,2.27,2.27,0,0,0,.34,1.19L30,88c.67.9,1.37,1.77,2.12,2.6,0,0,6.62,8.31,1.9,6.33-2.11-.88-4.23-2.6-7.35-5.45-3.54-3.22-6.57-6.88-9.44-15.46-1.8-5.36-4.06-18.18,3.9-32.49a90.81,90.81,0,0,1,9-12.19c5.23-6,11-11,16.6-14a30.9,30.9,0,0,1,4.11-1.87c10.15-3.74,11-3.88,18.46-4.16,6.13-.28,8.52-1.28,9.12-1.92a2.26,2.26,0,0,0,.93-1.83A2.14,2.14,0,0,0,79,6.45h0c-.17-.21-.36-.42-.55-.62A18.38,18.38,0,0,0,55.75,2.49c-.87.6-1.73,1.21-2.59,1.83A115.33,115.33,0,0,0,18.62,44.5c-.35.68-.69,1.36-1,2,.32-5.2,3.21-9.23,4.75-12.56a20.78,20.78,0,0,0,2.35-11.41C23.77,12.15,13.57,5.82,13.57,5.82s2.21,6.31.51,11.07-3.63,7.44-4.74,11.19a14.93,14.93,0,0,0,1.29,12.27c2.53,4.48,6,6.8,4.84,11.39h0a41.87,41.87,0,0,0-1.43,20v0C6.07,60.07.47,57.08.47,57.08S-.89,60.74,1,70.82,8.83,85,11,86.88c3,1.74,5.43,3.56,7.4,2.81,1.57-.89.79-1.87,2.24-1.6A41.61,41.61,0,0,0,54.2,106.28q1.54.12,3.12.12A37.94,37.94,0,0,0,89.79,48.84ZM58.92,100.48a34.19,34.19,0,0,1-10.86-1.77h0A34,34,0,0,1,39,94c-3.68-4.48.22-10.36,1.66-15.31A41.15,41.15,0,0,0,42.4,66.23c-.21-2.79,1.06-9.65-7.4-18.1,0,0,8.63-19.89,27.21-5.7A6.82,6.82,0,0,1,64.57,47a4.74,4.74,0,0,1-1,2.83l-.61.69c-.39.41-4.32,4.58-15.49,7.79C45,59,46,62.6,48.85,61.58s15.91-5.91,24.73.2l.23.16a12.87,12.87,0,0,1,2.6,18.57h0c-.23.39-9.93,16.77-34,6.22-1.56-.6-1.14.92-.54,1.58S60.22,100.52,78,86.18c5.39-5.47,10.49-16.33-1.59-26.6-3.91-3.39-11.66-5.08-12.89-4.87,1.69-1.13,8-6.06,4.44-12.16-2-3.36-5.3-5.39-8.49-6.69a16.27,16.27,0,0,1-1.69-.63c-2-.67-3.75-1.09-5-1.41.28-.06.83-.24,1.62-.46a31.78,31.78,0,0,1,3.26-.74c.41,0,.83,0,1.25,0a33.95,33.95,0,1,1,0,67.89Z"/></g></g></svg>