<svg xmlns="http://www.w3.org/2000/svg" viewBox="0 0 164.39 126.24"><defs><style>.cls-1{fill:#fff;}</style></defs><title>資產 26</title><g id="圖層_2" data-name="圖層 2"><g id="圖層_1-2" data-name="圖層 1"><path class="cls-1" d="M162.75,28.27c0-.55-1.65-12.63-6.87-18.39a23.9,23.9,0,0,0-16.74-8h-1.09C115.82.27,82.61,0,82.06,0,81.79,0,48.3.27,26.35,2.47h-.83a23,23,0,0,0-16.74,8C3.29,16.19,1.65,28.54,1.65,29.09A274.09,274.09,0,0,0,0,57.08V70C0,83.71,1.65,97.7,1.65,98c0,.55,1.64,12.62,6.86,18.38,5.76,6.59,12.62,7.41,17,8a5.93,5.93,0,0,1,2.2.28c12.62,1.1,52.69,1.64,54.34,1.64.27,0,33.76,0,56-2.47h.82a23,23,0,0,0,16.74-8c5.49-5.77,7.14-18.12,7.14-18.67a275.48,275.48,0,0,0,1.64-28V56.26C164.39,42.54,162.75,28.54,162.75,28.27ZM158.9,69.71a265,265,0,0,1-1.64,27.44c-.55,3-2.2,11.8-5.77,15.65-4.66,5.49-10.15,6-13.17,6.31h-.82c-22,1.65-55.17,1.65-55.44,1.65s-41.44-.55-53.52-1.93c-.82,0-1.64-.27-2.47-.27-3.84-.27-9.33-1.1-13.72-6C9.06,109,7.14,100.17,6.86,97.15c0-.27-1.65-14-1.65-27.44V56.81A263.38,263.38,0,0,1,6.86,29.37c.28-3,2.2-11.81,5.49-15.65A18.43,18.43,0,0,1,25.8,7.41h.82c22-1.65,55.16-1.92,55.44-1.92s33.48.27,55.44,1.92h1.09c3,.27,8.51.82,13.18,6.31,3.29,3.84,4.94,12.63,5.49,15.65.27.54,1.64,14.27,1.64,27.44v12.9Z"/><path class="cls-1" d="M116.36,63.4,64.22,32.93a2.48,2.48,0,0,0-2.74,0A2.89,2.89,0,0,0,60.1,35.4V95a2.87,2.87,0,0,0,1.38,2.47,3.61,3.61,0,0,0,2.74,0l52.14-29.09a2.9,2.9,0,0,0,0-4.94ZM65.59,90.29V40.07l43.91,25.8Z"/></g></g></svg>