<svg xmlns="http://www.w3.org/2000/svg" viewBox="0 0 169.58 169.58"><defs><style>.cls-1{fill:#fff;}</style></defs><title>資產 27</title><g id="圖層_2" data-name="圖層 2"><g id="圖層_1-2" data-name="圖層 1"><path class="cls-1" d="M87,105.06a2.68,2.68,0,0,0-3.57-1.27,42.7,42.7,0,0,1-6.77,2.53,2.69,2.69,0,0,0-1.91,2.06L72,122.54A3,3,0,0,1,69,125H61.29a3,3,0,0,1-2.94-2.41l-2.84-14.16a2.67,2.67,0,0,0-1.9-2.06,43,43,0,0,1-9.4-3.89,2.67,2.67,0,0,0-2.8.1l-12,8a3,3,0,0,1-3.79-.37l-5.46-5.47a3,3,0,0,1-.38-3.78l8-12a2.69,2.69,0,0,0,.11-2.8A42.57,42.57,0,0,1,24,76.69a2.67,2.67,0,0,0-2.05-1.9L7.77,72A3,3,0,0,1,5.35,69V61.29a3,3,0,0,1,2.42-2.95l14.16-2.83A2.67,2.67,0,0,0,24,53.61a42.77,42.77,0,0,1,3.9-9.41,2.67,2.67,0,0,0-.11-2.79l-8-12a3,3,0,0,1,.38-3.79l5.46-5.46a3,3,0,0,1,3.79-.38l12,8a2.69,2.69,0,0,0,2.8.11,42.49,42.49,0,0,1,9.4-3.9,2.65,2.65,0,0,0,1.9-2.05L58.35,7.77a3,3,0,0,1,2.94-2.42H69A3,3,0,0,1,72,7.77l2.83,14.16A2.68,2.68,0,0,0,76.7,24a42.69,42.69,0,0,1,9.4,3.9,2.69,2.69,0,0,0,2.8-.11l12-8a3,3,0,0,1,3.79.38l5.46,5.46a3,3,0,0,1,.37,3.79l-8,12a2.67,2.67,0,0,0-.1,2.8,42,42,0,0,1,3.89,9.4,2.68,2.68,0,0,0,2.06,1.9l14.16,2.84A3,3,0,0,1,125,61.29V69A3,3,0,0,1,122.54,72l-14.16,2.83a2.71,2.71,0,0,0-2.06,1.91,42,42,0,0,1-2.61,6.93A2.68,2.68,0,0,0,108.54,86,49.68,49.68,0,0,0,111,79.73l12.58-2.52A8.38,8.38,0,0,0,130.31,69V61.29a8.39,8.39,0,0,0-6.72-8.2L111,50.58A47.31,47.31,0,0,0,107.88,43L115,32.36a8.39,8.39,0,0,0-1-10.55l-5.46-5.46a8.36,8.36,0,0,0-10.54-1L87.27,22.42a48.09,48.09,0,0,0-7.54-3.12L77.21,6.72A8.38,8.38,0,0,0,69,0H61.29a8.39,8.39,0,0,0-8.2,6.72L50.58,19.3A47.36,47.36,0,0,0,43,22.43L32.36,15.31a8.39,8.39,0,0,0-10.55,1l-5.46,5.46a8.39,8.39,0,0,0-1,10.55L22.43,43a47.36,47.36,0,0,0-3.13,7.54L6.72,53.1A8.37,8.37,0,0,0,0,61.29V69a8.38,8.38,0,0,0,6.72,8.19L19.3,79.73a47.75,47.75,0,0,0,3.13,7.54L15.31,98a8.37,8.37,0,0,0,1,10.54L21.81,114a8.4,8.4,0,0,0,10.55,1L43,107.88A48.3,48.3,0,0,0,50.58,111l2.52,12.58a8.37,8.37,0,0,0,8.19,6.72H69a8.38,8.38,0,0,0,8.19-6.72L79.73,111a49.05,49.05,0,0,0,6-2.38A2.69,2.69,0,0,0,87,105.06Z"/><path class="cls-1" d="M88.34,80A2.67,2.67,0,0,0,92,78.87,30.1,30.1,0,0,0,44.14,43.6a2.68,2.68,0,0,0,3.74,3.84,24.75,24.75,0,0,1,39.3,29A2.68,2.68,0,0,0,88.34,80Z"/><path class="cls-1" d="M40.09,53.7a2.67,2.67,0,0,0-3.4,1.66,29.8,29.8,0,0,0-1.63,9.79A30.09,30.09,0,0,0,82.79,89.54a2.67,2.67,0,1,0-3.14-4.33A24.76,24.76,0,0,1,41.75,57.1,2.67,2.67,0,0,0,40.09,53.7Z"/><path class="cls-1" d="M164.42,117l-7.74-1.55a32.49,32.49,0,0,0-1.7-4.1l4.38-6.57a6.42,6.42,0,0,0-.8-8.09L155,93.12a6.43,6.43,0,0,0-8.09-.8l-6.57,4.38A33.19,33.19,0,0,0,136.22,95l-1.55-7.75a6.43,6.43,0,0,0-6.29-5.15H123.3A6.43,6.43,0,0,0,117,87.26L115.47,95a34,34,0,0,0-4.1,1.69l-6.57-4.38a6.43,6.43,0,0,0-8.09.8l-3.59,3.59a6.43,6.43,0,0,0-.8,8.09l4.38,6.57a32.11,32.11,0,0,0-2.18,5.69,2.68,2.68,0,1,0,5.15,1.45,27.24,27.24,0,0,1,2.48-6,2.69,2.69,0,0,0-.11-2.8l-5.26-7.9a1.06,1.06,0,0,1,.13-1.33l3.59-3.59a1.06,1.06,0,0,1,1.33-.13l7.9,5.26a2.69,2.69,0,0,0,2.8.11,27.24,27.24,0,0,1,6-2.48,2.67,2.67,0,0,0,1.9-2l1.86-9.31a1,1,0,0,1,1-.84h5.08a1.06,1.06,0,0,1,1,.84l1.86,9.31a2.65,2.65,0,0,0,1.9,2,27.45,27.45,0,0,1,6,2.48A2.69,2.69,0,0,0,142,102l7.89-5.26a1.06,1.06,0,0,1,1.33.13l3.6,3.59a1.07,1.07,0,0,1,.13,1.33l-5.27,7.9a2.67,2.67,0,0,0-.1,2.8,26.74,26.74,0,0,1,2.47,6,2.68,2.68,0,0,0,2.06,1.9l9.3,1.86a1.06,1.06,0,0,1,.85,1v5.08a1.07,1.07,0,0,1-.85,1l-9.3,1.86a2.68,2.68,0,0,0-2.06,1.9,26.74,26.74,0,0,1-2.47,6,2.67,2.67,0,0,0,.1,2.8l5.27,7.89a1.07,1.07,0,0,1-.14,1.34l-3.59,3.59a1.06,1.06,0,0,1-1.33.13L142,149.64a2.67,2.67,0,0,0-2.8-.1,27.13,27.13,0,0,1-6,2.47,2.68,2.68,0,0,0-1.9,2.06l-1.86,9.3a1.07,1.07,0,0,1-1,.85H123.3a1.06,1.06,0,0,1-1-.85l-1.86-9.3A2.69,2.69,0,0,0,118.5,152a26.86,26.86,0,0,1-6-2.47,2.67,2.67,0,0,0-2.8.1l-7.9,5.27a1.07,1.07,0,0,1-1.33-.13l-3.59-3.6a1.06,1.06,0,0,1-.13-1.33L102,142a2.69,2.69,0,0,0,.11-2.8,27.65,27.65,0,0,1-2.48-6,2.65,2.65,0,0,0-2-1.9l-9.31-1.86a1.06,1.06,0,0,1-.84-1V123.3a1,1,0,0,1,.84-1l.57-.11a2.68,2.68,0,0,0-1-5.26l-.57.12a6.43,6.43,0,0,0-5.15,6.28v5.08a6.43,6.43,0,0,0,5.15,6.29L95,136.22a33.19,33.19,0,0,0,1.69,4.09l-4.38,6.57a6.43,6.43,0,0,0,.8,8.09l3.59,3.59a6.42,6.42,0,0,0,8.09.8l6.57-4.38a32.49,32.49,0,0,0,4.1,1.7l1.55,7.74a6.43,6.43,0,0,0,6.28,5.16h5.08a6.43,6.43,0,0,0,6.29-5.16l1.55-7.74a31.76,31.76,0,0,0,4.09-1.7l6.57,4.38a6.42,6.42,0,0,0,8.09-.8l3.59-3.59a6.42,6.42,0,0,0,.8-8.09L155,140.31a31.76,31.76,0,0,0,1.7-4.09l7.74-1.55a6.43,6.43,0,0,0,5.16-6.29V123.3A6.43,6.43,0,0,0,164.42,117Z"/><path class="cls-1" d="M125.84,116.2a9.65,9.65,0,0,1,9.64,9.64,2.68,2.68,0,0,0,5.36,0,15,15,0,1,0-15,15,14.8,14.8,0,0,0,9.16-3.13,2.67,2.67,0,1,0-3.27-4.23,9.55,9.55,0,0,1-5.89,2,9.64,9.64,0,0,1,0-19.28Z"/><path class="cls-1" d="M81.47,65.15A16.32,16.32,0,1,0,65.15,81.47,16.33,16.33,0,0,0,81.47,65.15Zm-27.27,0a11,11,0,1,1,11,11A11,11,0,0,1,54.2,65.15Z"/></g></g></svg>