<svg xmlns="http://www.w3.org/2000/svg" viewBox="0 0 159.9 123.2"><defs><style>.cls-1{fill:#fff;}</style></defs><title>資產 28</title><g id="圖層_2" data-name="圖層 2"><g id="圖層_1-2" data-name="圖層 1"><g id="Outline"><path class="cls-1" d="M157.24,13.33A2.67,2.67,0,0,0,154.57,16v95.94H140.1a226.35,226.35,0,0,0-50.95,5.81,5.31,5.31,0,0,1-5.6-2.23,60.66,60.66,0,0,1,31.61-8.91h31.42a2.66,2.66,0,0,0,2.66-2.66V85.28a2.67,2.67,0,0,0-5.33,0v16H115.16a65.89,65.89,0,0,0-32.54,8.56V37.31a2.67,2.67,0,0,0-5.33,0v72.52a66,66,0,0,0-32.55-8.56H16V5.33H57A20.27,20.27,0,0,1,77.29,25.6a2.67,2.67,0,0,0,5.33,0A20.27,20.27,0,0,1,102.87,5.33h41V74.62a2.67,2.67,0,1,0,5.33,0V2.67A2.66,2.66,0,0,0,146.58,0H102.87A25.62,25.62,0,0,0,80,14.21,25.62,25.62,0,0,0,57,0H13.33a2.66,2.66,0,0,0-2.67,2.67V103.94a2.66,2.66,0,0,0,2.67,2.66H44.74a60.63,60.63,0,0,1,31.62,8.91,5.34,5.34,0,0,1-5.6,2.23,226.44,226.44,0,0,0-51-5.81H5.33V16A2.67,2.67,0,0,0,0,16V114.6a2.66,2.66,0,0,0,2.67,2.66H19.8a222.21,222.21,0,0,1,49.76,5.67A10.61,10.61,0,0,0,80,119.55a10.62,10.62,0,0,0,10.4,3.38,222.12,222.12,0,0,1,49.75-5.67h17.14a2.66,2.66,0,0,0,2.66-2.66V16A2.66,2.66,0,0,0,157.24,13.33Z"/><path class="cls-1" d="M71.22,23A25.5,25.5,0,0,0,57,18.66H26.65a2.67,2.67,0,0,0,0,5.33H57a20.15,20.15,0,0,1,11.24,3.4,2.67,2.67,0,1,0,3-4.44Z"/><path class="cls-1" d="M133.25,18.66H102.87A25.56,25.56,0,0,0,88.67,23a2.67,2.67,0,1,0,3,4.44A20.18,20.18,0,0,1,102.87,24h30.38a2.67,2.67,0,1,0,0-5.33Z"/><path class="cls-1" d="M71.22,36.28A25.51,25.51,0,0,0,57,32H26.65a2.67,2.67,0,0,0,0,5.33H57a20.23,20.23,0,0,1,11.24,3.4,2.66,2.66,0,1,0,3-4.43Z"/><path class="cls-1" d="M133.25,32H102.87a25.57,25.57,0,0,0-14.2,4.3,2.66,2.66,0,1,0,3,4.43h0a20.26,20.26,0,0,1,11.24-3.4h30.38a2.67,2.67,0,1,0,0-5.33Z"/><path class="cls-1" d="M71.22,49.6A25.5,25.5,0,0,0,57,45.31H26.65a2.67,2.67,0,0,0,0,5.33H57A20.15,20.15,0,0,1,68.27,54a2.67,2.67,0,0,0,3-4.44h0Z"/><path class="cls-1" d="M133.25,45.31H102.87a25.56,25.56,0,0,0-14.2,4.29,2.67,2.67,0,0,0,3,4.44h0a20.18,20.18,0,0,1,11.24-3.4h30.38a2.67,2.67,0,1,0,0-5.33Z"/><path class="cls-1" d="M71.22,62.93A25.59,25.59,0,0,0,57,58.63H26.65a2.67,2.67,0,0,0,0,5.33H57a20.23,20.23,0,0,1,11.24,3.4,2.66,2.66,0,1,0,3-4.43Z"/><path class="cls-1" d="M133.25,58.63H102.87a25.57,25.57,0,0,0-14.2,4.3,2.66,2.66,0,1,0,3,4.43A20.26,20.26,0,0,1,102.87,64h30.38a2.67,2.67,0,1,0,0-5.33Z"/><path class="cls-1" d="M71.22,76.26A25.43,25.43,0,0,0,57,72H26.65a2.67,2.67,0,0,0,0,5.33H57a20.15,20.15,0,0,1,11.24,3.4,2.66,2.66,0,1,0,3-4.43h0Z"/><path class="cls-1" d="M133.25,72H102.87a25.49,25.49,0,0,0-14.2,4.3,2.66,2.66,0,1,0,3,4.43,20.18,20.18,0,0,1,11.24-3.4h30.38a2.67,2.67,0,1,0,0-5.33Z"/><path class="cls-1" d="M57,85.28H26.65a2.67,2.67,0,0,0,0,5.33H57A20.16,20.16,0,0,1,68.27,94a2.67,2.67,0,0,0,3-4.44h0A25.52,25.52,0,0,0,57,85.28Z"/><path class="cls-1" d="M133.25,85.28H102.87a25.57,25.57,0,0,0-14.2,4.3,2.67,2.67,0,1,0,3,4.44h0a20.19,20.19,0,0,1,11.24-3.41h30.38a2.67,2.67,0,1,0,0-5.33Z"/></g></g></g></svg>